<?xml version="1.0" encoding="utf-8"?>
<!-- Generator: Adobe Illustrator 24.0.3, SVG Export Plug-In . SVG Version: 6.00 Build 0)  -->
<svg version="1.1" id="Ebene_1" xmlns="http://www.w3.org/2000/svg" xmlns:xlink="http://www.w3.org/1999/xlink" x="0px" y="0px"
	 viewBox="0 0 751.18 267.87" style="enable-background:new 0 0 751.18 267.87;" xml:space="preserve">
<style type="text/css">
	.st0{fill:none;}
	.st1{fill:#B3BCC2;}
	.st2{fill:#FFFFFF;}
	.st3{fill:#0BBBEF;}
	.st4{fill:#A2C617;}
	.st5{fill:#8A959C;}
	.st6{fill:#45556A;}
</style>
<rect class="st0" width="751.18" height="267.87"/>
<g>
	<path class="st1" d="M415.67,104.71h-2.37c-0.61,0-1.03-0.23-1.23-0.61l-11.83-22.48c-0.04-0.08-0.08-0.12-0.12-0.12
		s-0.04,0.04-0.04,0.12v22.36c0,0.38-0.31,0.73-0.69,0.73h-1.99c-0.38,0-0.69-0.08-0.69-0.46V77.33c0-0.61,0.5-1.07,1.11-1.07h2.11
		c1.07,0,1.26,0.19,1.57,0.77l11.76,22.37l0.08,0.11c0.04,0,0.04-0.08,0.04-0.11v-22.4c0-0.38,0.31-0.73,0.69-0.73h2.03
		c0.42,0,0.69,0.34,0.69,0.73v26.62C416.78,104.22,416.29,104.71,415.67,104.71z"/>
	<path class="st1" d="M436.28,104.71h-1.76c-0.42,0-0.77-0.34-0.77-0.77v-0.84c-1.84,1.07-3.75,1.88-5.9,1.88
		c-3.26,0-6.24-1.42-6.24-6.2v-0.46c0-4.14,2.41-6.2,9.23-6.2h2.83v-1.53c0-3.22-1.11-4.33-4.1-4.33c-2.49,0-4.33,0.15-5.86,0.31
		c-0.08,0-0.11,0-0.19,0c-0.34,0-0.69-0.11-0.69-0.61v-1.34c0-0.42,0.27-0.65,0.8-0.73c1.57-0.27,3.33-0.5,5.94-0.5
		c5.32,0,7.47,2.68,7.47,7.2v13.37C437.05,104.37,436.7,104.71,436.28,104.71z M433.68,94.53h-2.83c-4.63,0-5.86,1.03-5.86,3.75
		v0.46c0,2.76,1.3,3.48,3.52,3.48c1.76,0,3.33-0.54,5.17-1.53V94.53z"/>
	<path class="st1" d="M451.83,104.79c-0.77,0.11-1.76,0.19-2.49,0.19c-3.52,0-5.21-0.92-5.21-5.13V86.48l-3.71-0.42
		c-0.42-0.04-0.73-0.27-0.73-0.69v-1.03c0-0.42,0.31-0.69,0.73-0.69h3.71V79.9c0-0.38,0.27-0.69,0.69-0.77l1.99-0.31
		c0.04,0,0.08,0,0.12,0c0.31,0,0.57,0.27,0.57,0.65v4.18h4.14c0.42,0,0.77,0.34,0.77,0.77v1.3c0,0.42-0.35,0.77-0.77,0.77h-4.14
		v13.37c0,2.11,0.54,2.41,2.07,2.41h2.14c0.54,0,0.8,0.15,0.8,0.54v1.34C452.52,104.48,452.33,104.71,451.83,104.79z"/>
	<path class="st1" d="M459.19,80.28h-1.95c-0.42,0-0.77-0.34-0.77-0.77v-3.07c0-0.42,0.34-0.77,0.77-0.77h1.95
		c0.42,0,0.77,0.34,0.77,0.77v3.07C459.95,79.94,459.61,80.28,459.19,80.28z M459.11,104.71h-1.84c-0.42,0-0.77-0.34-0.77-0.77
		V84.42c0-0.42,0.34-0.77,0.77-0.77h1.84c0.42,0,0.77,0.34,0.77,0.77v19.53C459.88,104.37,459.53,104.71,459.11,104.71z"/>
	<path class="st1" d="M473.36,104.98c-5.63,0-8.5-3.71-8.5-9.35v-2.91c0-5.63,2.87-9.35,8.5-9.35c5.63,0,8.54,3.71,8.54,9.35v2.91
		C481.9,101.27,478.99,104.98,473.36,104.98z M478.53,92.73c0-3.91-1.57-6.4-5.17-6.4c-3.56,0-5.13,2.45-5.13,6.4v2.91
		c0,3.91,1.53,6.4,5.13,6.4c3.56,0,5.17-2.45,5.17-6.4V92.73z"/>
	<path class="st1" d="M501.78,104.71h-1.84c-0.42,0-0.77-0.34-0.77-0.77v-12.6c0-3.87-1.3-5.06-4.21-5.06
		c-1.61,0-3.41,0.61-5.17,1.49v16.16c0,0.38-0.34,0.77-0.77,0.77h-1.88c-0.38,0-0.73-0.34-0.73-0.77V84.42
		c0-0.42,0.31-0.77,0.73-0.77h1.91c0.42,0,0.73,0.34,0.73,0.77v0.73c2.11-1.19,3.83-1.76,6.09-1.76c4.6,0,6.66,2.87,6.66,7.97v12.6
		C502.54,104.37,502.2,104.71,501.78,104.71z"/>
	<path class="st1" d="M521.65,104.71h-1.76c-0.42,0-0.77-0.34-0.77-0.77v-0.84c-1.84,1.07-3.75,1.88-5.9,1.88
		c-3.26,0-6.24-1.42-6.24-6.2v-0.46c0-4.14,2.41-6.2,9.23-6.2h2.83v-1.53c0-3.22-1.11-4.33-4.1-4.33c-2.49,0-4.33,0.15-5.86,0.31
		c-0.08,0-0.11,0-0.19,0c-0.34,0-0.69-0.11-0.69-0.61v-1.34c0-0.42,0.27-0.65,0.8-0.73c1.57-0.27,3.33-0.5,5.94-0.5
		c5.32,0,7.47,2.68,7.47,7.2v13.37C522.42,104.37,522.08,104.71,521.65,104.71z M519.05,94.53h-2.83c-4.63,0-5.86,1.03-5.86,3.75
		v0.46c0,2.76,1.3,3.48,3.52,3.48c1.76,0,3.33-0.54,5.17-1.53V94.53z"/>
	<path class="st1" d="M530.69,104.71h-1.99c-0.38,0-0.69-0.34-0.69-0.77v-27.3c0-0.38,0.27-0.73,0.69-0.73h1.99
		c0.38,0,0.69,0.31,0.69,0.73v27.3C531.38,104.33,531.12,104.71,530.69,104.71z"/>
	<path class="st1" d="M552.49,95.26h-12.83v0.54c0,4.56,1.8,6.24,5.32,6.24c2.22,0,5.06-0.15,6.82-0.42c0.08,0,0.12,0,0.19,0
		c0.31,0,0.61,0.15,0.61,0.54v1.3c0,0.5-0.15,0.77-0.77,0.88c-2.18,0.42-4.29,0.65-6.85,0.65c-4.4,0-8.69-2.07-8.69-9.19v-3.45
		c0-5.47,3.03-8.96,8.5-8.96c5.59,0,8.42,3.52,8.42,8.96v2.07C553.21,94.91,552.95,95.26,552.49,95.26z M549.81,92.34
		c0-4.33-1.65-6.01-5.02-6.01c-3.29,0-5.13,1.88-5.13,6.01v0.34h10.15V92.34z"/>
	<path class="st1" d="M411.96,137.07H400.2v12.52c0,0.42-0.34,0.77-0.77,0.77h-1.95c-0.42,0-0.77-0.34-0.77-0.77v-20.83
		c0-5.09,2.8-7.12,8.16-7.12c2.26,0,5.86,0.08,7.47,0.23c0.23,0.04,0.38,0.31,0.38,0.54v1.92c0,0.27-0.15,0.46-0.42,0.46h-7.39
		c-4.06,0-4.71,1.07-4.71,3.98v5.32h11.76c0.42,0,0.77,0.34,0.77,0.77v1.45C412.72,136.73,412.38,137.07,411.96,137.07z"/>
	<path class="st1" d="M424.22,150.63c-5.63,0-8.5-3.71-8.5-9.34v-2.91c0-5.63,2.87-9.34,8.5-9.34c5.63,0,8.54,3.71,8.54,9.34v2.91
		C432.76,146.91,429.85,150.63,424.22,150.63z M429.39,138.37c0-3.91-1.57-6.39-5.17-6.39c-3.56,0-5.13,2.45-5.13,6.39v2.91
		c0,3.91,1.53,6.4,5.13,6.4c3.56,0,5.17-2.45,5.17-6.4V138.37z"/>
	<path class="st1" d="M445.93,131.94c-1.76,0-3.37,0.46-5.28,1.61v16.05c0,0.38-0.34,0.77-0.77,0.77h-1.88
		c-0.38,0-0.73-0.34-0.73-0.77v-19.53c0-0.42,0.31-0.77,0.73-0.77h1.8c0.42,0,0.73,0.34,0.73,0.77v0.81
		c1.91-1.34,3.68-1.84,5.4-1.84c0.54,0,0.8,0.23,0.8,0.69v1.57C446.74,131.71,446.47,131.94,445.93,131.94z"/>
	<path class="st1" d="M456.54,150.63c-1.42,0-4.17-0.11-6.05-0.57c-0.5-0.12-0.8-0.34-0.8-0.77v-1.34c0-0.34,0.31-0.57,0.69-0.57
		c0.08,0,0.11,0,0.15,0c1.84,0.23,4.63,0.42,6.01,0.42c2.49,0,3.79-0.65,3.79-2.72c0-1.15-0.69-1.88-2.87-3.18l-3.87-2.3
		c-2.34-1.42-3.91-3.06-3.91-5.48c0-3.98,2.99-5.09,6.93-5.09c2.14,0,4.17,0.19,5.97,0.5c0.5,0.08,0.73,0.34,0.73,0.77v1.26
		c0,0.46-0.27,0.65-0.65,0.65c-0.04,0-0.08,0-0.12,0c-1.34-0.11-3.79-0.31-5.94-0.31c-2.14,0-3.56,0.27-3.56,2.22
		c0,1.15,0.88,1.88,2.64,2.91l3.79,2.26c3.18,1.88,4.21,3.52,4.21,5.78C463.7,148.98,460.83,150.63,456.54,150.63z"/>
	<path class="st1" d="M480.48,150.21c-1.26,0.23-2.99,0.42-4.79,0.42c-5.21,0-8.16-3.68-8.16-9.31v-2.99c0-5.63,2.91-9.31,8.16-9.31
		c1.76,0,3.52,0.19,4.79,0.42c0.61,0.11,0.77,0.31,0.77,0.84v1.38c0,0.38-0.31,0.57-0.65,0.57c-0.08,0-0.11,0-0.15,0
		c-1.69-0.19-2.87-0.27-4.75-0.27c-3.06,0-4.79,2.03-4.79,6.36v2.99c0,4.29,1.69,6.36,4.79,6.36c1.88,0,3.06-0.08,4.75-0.27
		c0.04,0,0.08,0,0.15,0c0.34,0,0.65,0.19,0.65,0.57v1.38C481.25,149.86,481.09,150.09,480.48,150.21z"/>
	<path class="st1" d="M500.89,150.36h-1.84c-0.42,0-0.77-0.34-0.77-0.77V137c0-3.83-1.61-5.02-4.1-5.02c-1.19,0-3.6,0.31-5.28,1.07
		v16.54c0,0.38-0.34,0.77-0.77,0.77h-1.88c-0.38,0-0.73-0.34-0.73-0.77v-27.27c0-0.42,0.31-0.77,0.73-0.77h1.91
		c0.42,0,0.73,0.34,0.73,0.77v7.89c1.84-0.81,4.21-1.19,5.86-1.19c4.06,0,6.89,2.34,6.89,7.97v12.6
		C501.66,150.02,501.32,150.36,500.89,150.36z"/>
	<path class="st1" d="M522.27,150.36h-1.91c-0.42,0-0.73-0.34-0.73-0.77v-0.73c-2.11,1.19-3.83,1.76-6.09,1.76
		c-4.59,0-6.66-2.87-6.66-7.97v-12.6c0-0.42,0.34-0.77,0.77-0.77h1.84c0.42,0,0.77,0.34,0.77,0.77v12.6c0,3.87,1.3,5.06,4.21,5.06
		c1.61,0,3.41-0.61,5.17-1.49v-16.16c0-0.38,0.35-0.77,0.77-0.77h1.88c0.38,0,0.73,0.34,0.73,0.77v19.53
		C522.99,150.02,522.69,150.36,522.27,150.36z"/>
	<path class="st1" d="M543.56,150.36h-1.84c-0.42,0-0.77-0.34-0.77-0.77V137c0-3.87-1.3-5.06-4.21-5.06c-1.61,0-3.41,0.61-5.17,1.49
		v16.16c0,0.38-0.34,0.77-0.77,0.77h-1.88c-0.38,0-0.73-0.34-0.73-0.77v-19.53c0-0.42,0.31-0.77,0.73-0.77h1.91
		c0.42,0,0.73,0.34,0.73,0.77v0.73c2.11-1.19,3.83-1.76,6.09-1.76c4.6,0,6.66,2.87,6.66,7.97v12.6
		C544.33,150.02,543.98,150.36,543.56,150.36z"/>
	<path class="st1" d="M566.27,131.86l-1.38,0.27c0.69,0.73,1.3,1.88,1.3,3.94v0.31c0,4.21-2.6,6.55-8.5,6.55
		c-2.03,0-3.33-0.31-4.44-0.77c-0.65,0.31-0.96,0.73-0.96,1.3c0,0.65,0.31,0.99,1.19,1.22l5.71,1.45c3.75,0.96,7.35,2.03,7.35,5.63
		v0.31c0,3.68-2.45,5.94-8.73,5.94c-6.05,0-8.81-2.34-8.81-6.09v-0.34c0-2.15,1.15-3.91,2.41-4.86l-0.27-0.11
		c-1.23-0.54-1.76-1.8-1.76-2.99v-0.04c0-1.03,0.5-2.14,1.57-2.76c-1.19-1.11-1.76-2.49-1.76-4.44v-0.31c0-3.41,1.92-6.78,8.5-6.78
		h8.39c0.46,0,0.88,0.38,0.88,0.84v1C566.96,131.64,566.7,131.79,566.27,131.86z M563.17,151.78c0-1.49-1.23-2.11-4.67-2.99
		l-4.33-1.11c-1.11,0.96-1.88,1.91-1.88,3.91v0.34c0,2.14,1.26,3.48,5.51,3.48c4.37,0,5.36-1.22,5.36-3.33V151.78z M562.87,136.08
		c0-2.3-1.03-4.1-5.17-4.1c-4.29,0-5.17,1.95-5.17,4.1v0.31c0,1.69,0.77,3.91,5.17,3.91c4.14,0,5.17-1.61,5.17-3.91V136.08z"/>
	<path class="st1" d="M577.12,150.63c-1.42,0-4.17-0.11-6.05-0.57c-0.5-0.12-0.8-0.34-0.8-0.77v-1.34c0-0.34,0.31-0.57,0.69-0.57
		c0.08,0,0.11,0,0.15,0c1.84,0.23,4.63,0.42,6.01,0.42c2.49,0,3.79-0.65,3.79-2.72c0-1.15-0.69-1.88-2.87-3.18l-3.87-2.3
		c-2.34-1.42-3.91-3.06-3.91-5.48c0-3.98,2.99-5.09,6.93-5.09c2.14,0,4.17,0.19,5.97,0.5c0.5,0.08,0.73,0.34,0.73,0.77v1.26
		c0,0.46-0.27,0.65-0.65,0.65c-0.04,0-0.08,0-0.12,0c-1.34-0.11-3.79-0.31-5.94-0.31c-2.14,0-3.56,0.27-3.56,2.22
		c0,1.15,0.88,1.88,2.64,2.91l3.79,2.26c3.18,1.88,4.21,3.52,4.21,5.78C584.28,148.98,581.4,150.63,577.12,150.63z"/>
	<path class="st1" d="M603.5,149.98c-2.38,0.46-4.71,0.65-7.05,0.65c-5.71,0-8.35-3.71-8.35-9.46v-2.76c0-6.01,2.76-9.38,8.35-9.38
		c1.19,0,2.99,0.11,4.48,0.38v-7.12c0-0.38,0.31-0.73,0.73-0.73h1.95c0.38,0,0.69,0.31,0.69,0.73v26.81
		C604.31,149.6,604.19,149.86,603.5,149.98z M600.94,132.25c-1.26-0.23-3.26-0.27-4.48-0.27c-3.75,0-4.98,2.33-4.98,6.43v2.76
		c0,4.17,1.19,6.51,4.98,6.51c1.3,0,3.18-0.12,4.48-0.23V132.25z"/>
	<path class="st1" d="M623.42,150.36h-1.76c-0.42,0-0.77-0.34-0.77-0.77v-0.84c-1.84,1.07-3.75,1.88-5.9,1.88
		c-3.26,0-6.24-1.42-6.24-6.2v-0.46c0-4.14,2.41-6.21,9.23-6.21h2.83v-1.53c0-3.22-1.11-4.33-4.1-4.33c-2.49,0-4.33,0.15-5.86,0.31
		c-0.08,0-0.11,0-0.19,0c-0.34,0-0.69-0.11-0.69-0.61v-1.34c0-0.42,0.27-0.65,0.81-0.73c1.57-0.27,3.33-0.5,5.94-0.5
		c5.32,0,7.47,2.68,7.47,7.2v13.37C624.19,150.02,623.84,150.36,623.42,150.36z M620.81,140.18h-2.83c-4.63,0-5.86,1.03-5.86,3.75
		v0.46c0,2.76,1.3,3.48,3.52,3.48c1.76,0,3.33-0.54,5.17-1.53V140.18z"/>
	<path class="st1" d="M638.97,150.44c-0.77,0.12-1.76,0.19-2.49,0.19c-3.52,0-5.21-0.92-5.21-5.13v-13.37l-3.71-0.42
		c-0.42-0.04-0.73-0.27-0.73-0.69v-1.03c0-0.42,0.31-0.69,0.73-0.69h3.71v-3.75c0-0.38,0.27-0.69,0.69-0.77l1.99-0.31
		c0.04,0,0.08,0,0.12,0c0.31,0,0.57,0.27,0.57,0.65v4.17h4.14c0.42,0,0.77,0.34,0.77,0.77v1.3c0,0.42-0.35,0.77-0.77,0.77h-4.14
		v13.37c0,2.11,0.54,2.41,2.07,2.41h2.14c0.54,0,0.8,0.15,0.8,0.54v1.34C639.66,150.13,639.47,150.36,638.97,150.44z"/>
	<path class="st1" d="M658.73,140.9H645.9v0.54c0,4.56,1.8,6.24,5.32,6.24c2.22,0,5.06-0.15,6.82-0.42c0.08,0,0.12,0,0.19,0
		c0.31,0,0.61,0.15,0.61,0.54v1.3c0,0.5-0.15,0.77-0.77,0.88c-2.18,0.42-4.29,0.65-6.85,0.65c-4.4,0-8.69-2.07-8.69-9.19v-3.45
		c0-5.48,3.03-8.96,8.5-8.96c5.59,0,8.42,3.52,8.42,8.96v2.07C659.46,140.56,659.19,140.9,658.73,140.9z M656.05,137.99
		c0-4.33-1.65-6.01-5.02-6.01c-3.29,0-5.13,1.88-5.13,6.01v0.34h10.15V137.99z"/>
	<path class="st1" d="M679.42,150.36h-1.84c-0.42,0-0.77-0.34-0.77-0.77V137c0-3.87-1.3-5.06-4.21-5.06c-1.61,0-3.41,0.61-5.17,1.49
		v16.16c0,0.38-0.34,0.77-0.77,0.77h-1.88c-0.38,0-0.73-0.34-0.73-0.77v-19.53c0-0.42,0.31-0.77,0.73-0.77h1.91
		c0.42,0,0.73,0.34,0.73,0.77v0.73c2.11-1.19,3.83-1.76,6.09-1.76c4.6,0,6.66,2.87,6.66,7.97v12.6
		C680.18,150.02,679.84,150.36,679.42,150.36z"/>
	<path class="st1" d="M399.9,196.01h-2.11c-0.38,0-0.69-0.34-0.69-0.77v-26.96c0-0.38,0.27-0.73,0.69-0.73h2.11
		c0.38,0,0.69,0.31,0.69,0.73v26.96C400.58,195.63,400.32,196.01,399.9,196.01z"/>
	<path class="st1" d="M421.92,196.01h-1.84c-0.42,0-0.77-0.34-0.77-0.77v-12.6c0-3.87-1.3-5.06-4.21-5.06
		c-1.61,0-3.41,0.61-5.17,1.49v16.16c0,0.38-0.34,0.77-0.77,0.77h-1.88c-0.38,0-0.73-0.34-0.73-0.77v-19.53
		c0-0.42,0.31-0.77,0.73-0.77h1.91c0.42,0,0.73,0.34,0.73,0.77v0.73c2.11-1.19,3.83-1.76,6.09-1.76c4.6,0,6.66,2.87,6.66,7.97v12.6
		C422.68,195.66,422.34,196.01,421.92,196.01z"/>
	<path class="st1" d="M437.47,169.55h-1.84c-1.8,0-2.34,0.54-2.34,2.64v2.76h4.02c0.42,0,0.73,0.31,0.73,0.69v1.49
		c0,0.38-0.31,0.65-0.73,0.65h-4.02v17.46c0,0.38-0.35,0.77-0.73,0.77h-1.88c-0.42,0-0.77-0.38-0.77-0.77v-17.46l-3.71-0.42
		c-0.42-0.04-0.73-0.31-0.73-0.69v-1.03c0-0.38,0.31-0.69,0.73-0.69h3.71v-2.76c0-4.1,1.99-5.32,5.36-5.32
		c1.03,0,1.65,0.11,2.14,0.23c0.42,0.11,0.73,0.27,0.73,0.61v1.26C438.16,169.39,437.89,169.55,437.47,169.55z"/>
	<path class="st1" d="M450.38,177.59c-1.76,0-3.37,0.46-5.28,1.61v16.05c0,0.38-0.34,0.77-0.77,0.77h-1.88
		c-0.38,0-0.73-0.34-0.73-0.77v-19.53c0-0.42,0.31-0.77,0.73-0.77h1.8c0.42,0,0.73,0.34,0.73,0.77v0.8c1.91-1.34,3.68-1.84,5.4-1.84
		c0.54,0,0.8,0.23,0.8,0.69v1.57C451.18,177.36,450.91,177.59,450.38,177.59z"/>
	<path class="st1" d="M467.69,196.01h-1.76c-0.42,0-0.77-0.34-0.77-0.77v-0.84c-1.84,1.07-3.75,1.88-5.9,1.88
		c-3.26,0-6.24-1.42-6.24-6.2v-0.46c0-4.14,2.41-6.2,9.23-6.2h2.83v-1.53c0-3.22-1.11-4.33-4.1-4.33c-2.49,0-4.33,0.15-5.86,0.31
		c-0.08,0-0.11,0-0.19,0c-0.34,0-0.69-0.11-0.69-0.61v-1.34c0-0.42,0.27-0.65,0.8-0.73c1.57-0.27,3.33-0.5,5.94-0.5
		c5.32,0,7.47,2.68,7.47,7.2v13.37C468.45,195.66,468.11,196.01,467.69,196.01z M465.08,185.82h-2.83c-4.63,0-5.86,1.03-5.86,3.75
		v0.46c0,2.76,1.3,3.48,3.52,3.48c1.76,0,3.33-0.54,5.17-1.53V185.82z"/>
	<path class="st1" d="M479.83,196.28c-1.42,0-4.17-0.11-6.05-0.57c-0.5-0.11-0.8-0.34-0.8-0.77v-1.34c0-0.34,0.31-0.57,0.69-0.57
		c0.08,0,0.11,0,0.15,0c1.84,0.23,4.63,0.42,6.01,0.42c2.49,0,3.79-0.65,3.79-2.72c0-1.15-0.69-1.88-2.87-3.18l-3.87-2.3
		c-2.34-1.42-3.91-3.06-3.91-5.47c0-3.98,2.99-5.09,6.93-5.09c2.14,0,4.17,0.19,5.97,0.5c0.5,0.08,0.73,0.34,0.73,0.77v1.26
		c0,0.46-0.27,0.65-0.65,0.65c-0.04,0-0.08,0-0.12,0c-1.34-0.11-3.79-0.31-5.94-0.31c-2.14,0-3.56,0.27-3.56,2.22
		c0,1.15,0.88,1.88,2.64,2.91l3.79,2.26c3.18,1.88,4.21,3.52,4.21,5.78C486.99,194.63,484.12,196.28,479.83,196.28z"/>
	<path class="st1" d="M501.51,196.09c-0.77,0.11-1.76,0.19-2.49,0.19c-3.52,0-5.21-0.92-5.21-5.13v-13.37l-3.71-0.42
		c-0.42-0.04-0.73-0.27-0.73-0.69v-1.03c0-0.42,0.31-0.69,0.73-0.69h3.71v-3.75c0-0.38,0.27-0.69,0.69-0.77l1.99-0.31
		c0.04,0,0.08,0,0.12,0c0.31,0,0.57,0.27,0.57,0.65v4.18h4.14c0.42,0,0.77,0.34,0.77,0.77v1.3c0,0.42-0.35,0.77-0.77,0.77h-4.14
		v13.37c0,2.11,0.54,2.41,2.07,2.41h2.14c0.54,0,0.8,0.15,0.8,0.54v1.34C502.2,195.78,502.01,196.01,501.51,196.09z"/>
	<path class="st1" d="M514.42,177.59c-1.76,0-3.37,0.46-5.28,1.61v16.05c0,0.38-0.34,0.77-0.77,0.77h-1.88
		c-0.38,0-0.73-0.34-0.73-0.77v-19.53c0-0.42,0.31-0.77,0.73-0.77h1.8c0.42,0,0.73,0.34,0.73,0.77v0.8c1.91-1.34,3.68-1.84,5.4-1.84
		c0.54,0,0.8,0.23,0.8,0.69v1.57C515.22,177.36,514.95,177.59,514.42,177.59z"/>
	<path class="st1" d="M534.26,196.01h-1.91c-0.42,0-0.73-0.34-0.73-0.77v-0.73c-2.11,1.19-3.83,1.76-6.09,1.76
		c-4.59,0-6.66-2.87-6.66-7.97v-12.6c0-0.42,0.34-0.77,0.77-0.77h1.84c0.42,0,0.77,0.34,0.77,0.77v12.6c0,3.87,1.3,5.05,4.21,5.05
		c1.61,0,3.41-0.61,5.17-1.49v-16.16c0-0.38,0.35-0.77,0.77-0.77h1.88c0.38,0,0.73,0.34,0.73,0.77v19.53
		C534.98,195.66,534.68,196.01,534.26,196.01z"/>
	<path class="st1" d="M554.82,196.01h-2.76c-0.42,0-0.57-0.12-0.88-0.5l-7.62-9.42v9.15c0,0.42-0.34,0.77-0.77,0.77h-1.84
		c-0.42,0-0.77-0.34-0.77-0.77v-27.27c0-0.42,0.34-0.77,0.77-0.77h1.84c0.42,0,0.77,0.34,0.77,0.77v15.93l7.66-8.62
		c0.23-0.27,0.38-0.34,0.77-0.34h2.68c0.38,0,0.57,0.19,0.57,0.42c0,0.15-0.08,0.31-0.19,0.42l-8.42,9.11l8.5,10.26
		c0.08,0.08,0.12,0.23,0.12,0.34C555.24,195.78,555.09,196.01,554.82,196.01z"/>
	<path class="st1" d="M569.68,196.09c-0.77,0.11-1.76,0.19-2.49,0.19c-3.52,0-5.21-0.92-5.21-5.13v-13.37l-3.71-0.42
		c-0.42-0.04-0.73-0.27-0.73-0.69v-1.03c0-0.42,0.31-0.69,0.73-0.69h3.71v-3.75c0-0.38,0.27-0.69,0.69-0.77l1.99-0.31
		c0.04,0,0.08,0,0.12,0c0.31,0,0.57,0.27,0.57,0.65v4.18h4.14c0.42,0,0.77,0.34,0.77,0.77v1.3c0,0.42-0.35,0.77-0.77,0.77h-4.14
		v13.37c0,2.11,0.54,2.41,2.07,2.41h2.14c0.54,0,0.8,0.15,0.8,0.54v1.34C570.37,195.78,570.18,196.01,569.68,196.09z"/>
	<path class="st1" d="M589.33,196.01h-1.91c-0.42,0-0.73-0.34-0.73-0.77v-0.73c-2.11,1.19-3.83,1.76-6.09,1.76
		c-4.59,0-6.66-2.87-6.66-7.97v-12.6c0-0.42,0.34-0.77,0.77-0.77h1.84c0.42,0,0.77,0.34,0.77,0.77v12.6c0,3.87,1.3,5.05,4.21,5.05
		c1.61,0,3.41-0.61,5.17-1.49v-16.16c0-0.38,0.35-0.77,0.77-0.77h1.88c0.38,0,0.73,0.34,0.73,0.77v19.53
		C590.06,195.66,589.75,196.01,589.33,196.01z"/>
	<path class="st1" d="M603.93,177.59c-1.76,0-3.37,0.46-5.28,1.61v16.05c0,0.38-0.34,0.77-0.77,0.77H596
		c-0.38,0-0.73-0.34-0.73-0.77v-19.53c0-0.42,0.31-0.77,0.73-0.77h1.8c0.42,0,0.73,0.34,0.73,0.77v0.8c1.91-1.34,3.68-1.84,5.4-1.84
		c0.54,0,0.8,0.23,0.8,0.69v1.57C604.73,177.36,604.46,177.59,603.93,177.59z"/>
</g>
<g>
	<path class="st2" d="M220.66,70.87c-22.97,0-41.65,18.68-41.65,41.65v76.35c0,4.49,3.64,8.13,8.13,8.13c4.49,0,8.13-3.64,8.13-8.13
		v-50.61h12.86c4.18,0,7.57-3.46,7.57-7.73c0-4.27-3.39-7.73-7.57-7.73h-12.86v-10.28c0-14,11.39-25.39,25.39-25.39
		c4.49,0,8.13-3.64,8.13-8.13S225.15,70.87,220.66,70.87"/>
	<g>
		<path class="st2" d="M147.31,196.99c-4.49,0-8.13-3.64-8.13-8.13l0.06-33.76c0-14-11.39-25.39-25.39-25.39
			s-25.39,11.39-25.39,25.39c0,4.49-3.64,8.13-8.13,8.13s-8.13-3.64-8.13-8.13c0-22.96,18.68-41.65,41.65-41.65
			s41.65,18.68,41.65,41.65v33.76C155.5,193.35,151.8,196.99,147.31,196.99"/>
		<path class="st3" d="M89.8,187.5c0,5.23-4.24,9.47-9.47,9.47c-5.23,0-9.47-4.24-9.47-9.47s4.24-9.47,9.47-9.47
			C85.56,178.03,89.8,182.27,89.8,187.5"/>
	</g>
	<g>
		<path class="st4" d="M351.91,95.15c3.49,3.89,3.17,9.88-0.72,13.37c-3.89,3.49-9.88,3.16-13.37-0.73
			c-3.49-3.89-3.17-9.88,0.72-13.37C342.43,90.93,348.42,91.25,351.91,95.15"/>
		<path class="st2" d="M352.99,133.86v55c0,4.49-3.64,8.13-8.13,8.13l0,0c-4.49,0-8.13-3.64-8.13-8.13v-55
			c0-4.49,3.64-8.13,8.13-8.13h0C349.36,125.73,352.99,129.37,352.99,133.86z"/>
	</g>
	<path class="st2" d="M304.88,70.87c-4.49,0-8.13,3.64-8.13,8.13v43.2c-7.06-5.47-15.91-8.73-25.51-8.73
		c-23.03,0-41.77,18.73-41.77,41.76s18.73,41.76,41.77,41.76c23.03,0,41.76-18.73,41.76-41.76V79
		C313,74.51,309.37,70.87,304.88,70.87z M271.24,180.74c-14.07,0-25.51-11.44-25.51-25.51c0-14.06,11.44-25.51,25.51-25.51
		c14.06,0,25.51,11.44,25.51,25.51C296.74,169.3,285.3,180.74,271.24,180.74z"/>
</g>
</svg>
